<svg width="1440" height="1024" viewBox="0 0 1440 1024" fill="none" xmlns="http://www.w3.org/2000/svg">
<path d="M520.685 501.467C506.196 503.397 493.246 502.458 481.834 498.65C470.405 494.72 461.181 488.266 454.161 479.288C447.141 470.31 442.771 459.368 441.052 446.462C438.667 428.564 439.899 412.228 444.746 397.456C449.715 382.668 457.48 370.728 468.041 361.639C478.586 352.427 490.92 346.88 505.044 344.999C518.194 343.247 528.632 345.326 536.359 351.236C544.069 357.024 548.662 365.458 550.138 376.538C551.128 383.965 550.583 390.109 548.505 394.971C546.548 399.817 543.135 402.564 538.265 403.213C534.855 403.667 532.071 403.233 529.912 401.909C527.753 400.586 526.471 398.402 526.066 395.358C525.92 394.263 525.896 392.221 525.993 389.234C526.237 385.484 526.213 382.513 525.921 380.322C524.445 369.242 517.802 364.489 505.992 366.062C497.956 367.133 490.634 370.773 484.026 376.981C477.418 383.19 472.543 391.708 469.401 402.536C466.242 413.242 465.595 425.596 467.461 439.598C469.407 454.208 474.995 464.988 484.223 471.937C493.435 478.765 506.016 481.116 521.966 478.991C529.88 477.937 537.725 475.9 545.502 472.881C553.383 469.725 561.98 465.42 571.29 459.966C573.019 458.992 574.493 458.424 575.71 458.262C577.658 458.002 579.217 458.538 580.385 459.87C581.554 461.201 582.293 463.023 582.601 465.337C583.59 472.764 580.302 478.778 572.737 483.379C564.595 488.306 555.958 492.306 546.826 495.382C537.8 498.319 529.086 500.347 520.685 501.467Z" fill="url(#paint0_linear_1_113)"/>
<path d="M622.95 488.4C606.757 490.557 593.384 489.241 582.833 484.451C572.265 479.539 566.138 470.752 564.451 458.089C563.558 451.393 564.034 446.125 565.877 442.286C567.72 438.446 570.894 436.227 575.399 435.627C578.686 435.189 581.478 435.684 583.775 437.113C586.072 438.542 587.399 440.595 587.756 443.274C588.08 445.709 588.181 447.864 588.06 449.739C588.124 450.226 588.116 451.095 588.035 452.345C588.075 453.579 588.185 454.865 588.363 456.204C589.093 461.683 592.376 465.397 598.212 467.346C604.17 469.278 612.14 469.58 622.124 468.25C632.474 466.871 640.327 463.966 645.685 459.534C651.026 454.981 653.251 449.357 652.359 442.66C651.807 438.52 649.997 435.168 646.929 432.603C643.845 429.916 640.164 427.866 635.887 426.453C631.593 424.918 625.599 423.177 617.904 421.228C608.043 418.824 599.91 416.376 593.506 413.883C587.223 411.375 581.579 407.604 576.571 402.571C571.669 397.4 568.658 390.613 567.539 382.212C566.371 373.446 567.646 365.345 571.365 357.911C575.205 350.46 581.257 344.263 589.52 339.321C597.905 334.362 608.064 331.088 619.996 329.498C628.884 328.314 637.22 328.567 645.004 330.256C652.772 331.823 659.204 334.994 664.301 339.767C669.52 344.524 672.648 350.799 673.687 358.591C674.709 366.262 674.322 372.199 672.528 376.404C670.734 380.608 667.584 383.01 663.079 383.61C659.914 384.032 657.105 383.415 654.654 381.759C652.325 380.087 650.981 377.911 650.625 375.232C650.316 372.919 650.215 370.764 650.321 368.767C650.2 365.066 650.074 362.728 649.944 361.754C649.263 356.641 646.248 353.077 640.899 351.063C635.55 349.05 629.162 348.538 621.735 349.527C611.264 350.922 603.488 353.941 598.406 358.583C593.43 363.088 591.404 368.81 592.329 375.75C592.945 380.377 594.873 384.147 598.111 387.061C601.471 389.96 605.428 392.22 609.981 393.844C614.535 395.468 620.849 397.291 628.926 399.313C638.682 401.855 646.563 404.274 652.569 406.572C658.576 408.87 663.876 412.377 668.469 417.093C673.185 421.794 676.053 427.979 677.075 435.65C678.989 450.017 674.987 461.827 665.067 471.079C655.252 480.193 641.213 485.967 622.95 488.4Z" fill="url(#paint1_linear_1_113)"/>
<path d="M749.581 471.529C733.387 473.687 720.015 472.37 709.463 467.58C698.896 462.669 692.768 453.881 691.081 441.219C690.189 434.522 690.664 429.254 692.507 425.415C694.35 421.576 697.524 419.356 702.029 418.756C705.317 418.318 708.109 418.814 710.406 420.243C712.703 421.671 714.03 423.725 714.387 426.404C714.711 428.839 714.812 430.994 714.69 432.869C714.755 433.356 714.747 434.224 714.666 435.474C714.706 436.708 714.815 437.995 714.994 439.334C715.724 444.813 719.007 448.527 724.843 450.476C730.8 452.408 738.771 452.709 748.755 451.379C759.104 450 766.958 447.095 772.315 442.664C777.657 438.111 779.881 432.486 778.989 425.79C778.438 421.65 776.628 418.297 773.56 415.732C770.476 413.045 766.795 410.995 762.518 409.582C758.224 408.048 752.23 406.306 744.535 404.357C734.673 401.954 726.54 399.505 720.136 397.013C713.854 394.504 708.209 390.733 703.202 385.7C698.3 380.529 695.289 373.743 694.17 365.342C693.002 356.576 694.277 348.475 697.995 341.04C701.835 333.589 707.887 327.393 716.151 322.45C724.536 317.492 734.695 314.218 746.627 312.628C755.515 311.444 763.851 311.696 771.635 313.386C779.403 314.953 785.835 318.123 790.932 322.897C796.151 327.654 799.279 333.928 800.317 341.721C801.339 349.391 800.953 355.329 799.159 359.533C797.364 363.738 794.215 366.14 789.71 366.74C786.544 367.162 783.736 366.545 781.285 364.889C778.955 363.216 777.612 361.041 777.255 358.362C776.947 356.049 776.846 353.894 776.952 351.897C776.83 348.196 776.705 345.858 776.575 344.884C775.894 339.77 772.879 336.206 767.53 334.193C762.181 332.179 755.793 331.667 748.366 332.657C737.895 334.052 730.119 337.07 725.037 341.713C720.061 346.217 718.035 351.939 718.959 358.879C719.576 363.506 721.503 367.277 724.742 370.191C728.102 373.089 732.058 375.35 736.612 376.974C741.165 378.598 747.48 380.421 755.556 382.443C765.312 384.984 773.194 387.404 779.2 389.702C785.206 392 790.506 395.507 795.1 400.223C799.815 404.923 802.684 411.109 803.706 418.779C805.62 433.146 801.617 444.956 791.697 454.208C781.883 463.323 767.844 469.096 749.581 471.529Z" fill="url(#paint2_linear_1_113)"/>
<path d="M884.376 353.199C879.263 353.88 875.273 353.234 872.408 351.262C869.527 349.167 867.802 345.989 867.235 341.728C866.667 337.466 867.84 333.716 870.755 330.478C873.774 327.102 877.78 325.081 882.772 324.416C887.277 323.816 891.076 324.425 894.168 326.243C897.261 328.062 899.075 330.98 899.61 334.998C900.259 339.868 899.195 343.975 896.419 347.319C893.626 350.541 889.612 352.501 884.376 353.199ZM895.981 451.468C888.067 452.522 881.911 450.492 877.512 445.378C873.235 440.248 870.48 433.056 869.247 423.802C868.517 418.323 868.254 411.233 868.458 402.532C868.767 393.692 869.523 385.413 870.725 377.694C871.302 373.652 872.406 370.779 874.038 369.074C875.67 367.37 878.494 366.25 882.512 365.715C888.722 364.888 892.102 366.544 892.654 370.684C893.059 373.727 892.844 380.943 892.006 392.331C890.868 406.114 890.616 415.379 891.248 420.128C891.735 423.78 892.595 426.516 893.829 428.334C895.062 430.152 896.836 430.908 899.149 430.599C901.341 430.307 903.878 428.42 906.759 424.939C909.641 421.457 913.384 416.063 917.987 408.759C919.221 406.859 920.751 405.788 922.577 405.545C924.16 405.334 925.475 405.902 926.522 407.25C927.691 408.581 928.445 410.525 928.786 413.082C929.435 417.952 928.781 421.881 926.824 424.868C916.733 441.206 906.452 450.073 895.981 451.468Z" fill="url(#paint3_linear_1_113)"/>
<path d="M952.968 447.965C946.636 448.808 941.571 447.996 937.773 445.528C934.096 443.044 932.015 439.976 931.528 436.323C931.106 433.157 931.898 430.264 933.903 427.642C935.908 425.021 939.163 423.41 943.668 422.81C945.251 422.599 947.102 422.538 949.22 422.627C951.444 422.579 953.112 422.543 954.224 422.518C953.681 419.369 952.553 416.483 950.84 413.861C949.25 411.223 947.31 408.755 945.021 406.458C942.716 404.039 940.582 401.969 938.618 400.248C935.8 407.934 932.821 414.403 929.679 419.655C926.659 424.89 923.241 429.93 919.426 434.775C917.526 437.259 915.359 438.663 912.924 438.987C910.976 439.247 909.303 438.788 907.908 437.611C906.495 436.312 905.651 434.628 905.376 432.558C905.051 430.123 905.603 427.757 907.032 425.46L909.017 422.221C914.611 413.05 918.755 405.558 921.451 399.747C923.172 395.924 924.804 391.432 926.347 386.269C928.011 381.091 930.11 374.058 932.643 365.17C934.243 359.505 938.696 356.185 946.001 355.212C949.41 354.758 951.825 354.746 953.245 355.176C954.666 355.607 955.465 356.491 955.644 357.831C955.741 358.561 955.651 359.75 955.375 361.398C955.099 363.046 954.64 364.718 953.999 366.414C952.391 371.089 951.79 374.949 952.196 377.993C952.439 379.819 953.316 381.747 954.825 383.776C956.456 385.79 958.83 388.261 961.947 391.192C966.524 395.787 970.03 399.781 972.465 403.174C975.005 406.429 976.559 410.187 977.127 414.449C977.808 419.562 977.24 424.595 975.421 429.546C973.708 434.359 970.907 438.45 967.019 441.818C963.13 445.186 958.447 447.235 952.968 447.965Z" fill="url(#paint4_linear_1_113)"/>
<path d="M406.524 745.147C398.976 746.153 392.584 744.216 387.349 739.337C382.114 734.459 378.904 727.575 377.72 718.687C376.423 708.946 377.45 699.454 380.804 690.209C384.141 680.842 389.174 673.047 395.904 666.822C402.739 660.459 410.357 656.718 418.758 655.598C421.437 655.241 423.275 655.554 424.273 656.536C425.377 657.381 426.412 659.102 427.378 661.699C429.87 660.871 432.516 660.271 435.316 659.898C441.282 659.103 444.549 660.837 445.117 665.098C445.457 667.655 445.355 673.864 444.81 683.726C443.876 698.101 443.773 708.028 444.503 713.507C444.746 715.334 445.367 716.738 446.365 717.72C447.485 718.686 448.776 719.072 450.237 718.877C452.55 718.569 455.156 716.735 458.054 713.375C460.936 709.893 464.731 704.431 469.44 696.988C470.674 695.089 472.204 694.017 474.03 693.774C475.613 693.563 476.928 694.132 477.975 695.479C479.144 696.81 479.898 698.754 480.239 701.311C480.888 706.182 480.234 710.11 478.278 713.097C474.113 719.971 469.514 725.913 464.481 730.92C459.448 735.928 454.314 738.78 449.078 739.478C445.06 740.013 441.168 739.169 437.402 736.944C433.742 734.582 430.743 731.14 428.406 726.618C423.437 737.689 416.143 743.866 406.524 745.147ZM410.642 725.825C413.32 725.468 415.666 723.545 417.68 720.055C419.693 716.565 420.899 712.129 421.297 706.747L423.578 672.243C418.48 673.046 413.991 675.626 410.111 679.985C406.336 684.205 403.576 689.53 401.83 695.958C400.084 702.386 399.665 709.01 400.574 715.828C401.077 719.603 402.18 722.306 403.885 723.937C405.711 725.553 407.963 726.182 410.642 725.825Z" fill="url(#paint5_linear_1_113)"/>
<path d="M600.358 661.888C600.707 661.718 601.308 661.576 602.16 661.462C603.987 661.219 605.468 661.641 606.604 662.729C607.74 663.817 608.446 665.396 608.722 667.465C609.225 671.24 608.892 674.32 607.723 676.706C606.537 678.971 604.549 680.785 601.756 682.148C596.399 684.721 590.554 686.429 584.223 687.272C578.866 687.986 573.716 687.928 568.773 687.1C566.004 693.293 562.895 699.717 559.444 706.373C555.498 713.962 551.931 719.27 548.74 722.297C545.672 725.308 541.946 727.106 537.563 727.69C532.692 728.338 528.727 726.946 525.668 723.512C522.73 720.062 520.381 714.055 518.62 705.492L515.931 692.281C513.519 703.011 511.148 711.258 508.818 717.021C506.609 722.767 504.121 726.878 501.353 729.354C498.706 731.813 495.374 733.31 491.356 733.845C486.364 734.51 482.148 733.089 478.707 729.583C475.387 726.06 472.803 720.146 470.953 711.842C467.221 694.991 464.503 680.173 462.8 667.389L461.948 660.997C461.535 656.963 462.258 654.016 464.116 652.158C465.975 650.299 468.975 649.094 473.115 648.543C476.28 648.121 478.691 648.543 480.347 649.81C482.108 650.938 483.207 653.146 483.645 656.433C485.511 670.435 488.788 688.524 493.477 710.7C499.437 692.186 504.63 673.031 509.056 653.234C509.908 649.403 511.167 646.757 512.831 645.296C514.601 643.697 516.825 642.719 519.503 642.362C522.791 641.924 525.133 642.294 526.529 643.471C528.046 644.632 529.032 646.917 529.486 650.326C531.352 664.328 534.629 682.417 539.318 704.593C545.18 692.783 549.507 683.409 552.3 676.469C550.004 673.182 548.531 669.103 547.882 664.232C547.33 660.093 547.708 655.953 549.016 651.814C550.323 647.674 552.397 644.176 555.238 641.319C558.08 638.462 561.509 636.766 565.527 636.231C569.058 635.76 572.09 636.658 574.622 638.923C577.138 641.066 578.712 644.512 579.345 649.26C580.075 654.739 579.449 661.204 577.468 668.655C582.062 667.795 588.089 666.063 595.549 663.458L600.358 661.888Z" fill="url(#paint6_linear_1_113)"/>
<path d="M675.418 666.944C677.001 666.733 678.316 667.302 679.363 668.649C680.531 669.98 681.286 671.925 681.627 674.481C682.276 679.352 681.622 683.28 679.665 686.267C675.89 692.346 670.171 698.251 662.508 703.98C654.967 709.694 646.509 713.175 637.134 714.424C624.349 716.127 613.964 713.979 605.977 707.98C597.991 701.981 593.195 692.954 591.589 680.9C590.47 672.499 591.197 664.472 593.771 656.818C596.329 649.042 600.428 642.61 606.07 637.521C611.834 632.416 618.673 629.336 626.587 628.282C633.649 627.341 639.594 628.718 644.423 632.411C649.236 635.983 652.121 641.361 653.078 648.545C654.197 656.946 652.119 664.596 646.842 671.495C641.671 678.256 632.137 684.358 618.24 689.803C622.03 694.999 628.187 697.029 636.709 695.893C642.188 695.163 648.147 692.449 654.584 687.75C661.127 682.913 666.541 677.049 670.828 670.158C672.062 668.259 673.592 667.187 675.418 666.944ZM625.866 646.594C621.361 647.194 617.875 650.323 615.407 655.98C613.06 661.621 612.382 668.155 613.371 675.582L613.42 675.947C620.377 673.286 625.698 669.975 629.383 666.014C633.069 662.053 634.611 657.82 634.011 653.316C633.703 651.002 632.79 649.265 631.272 648.104C629.86 646.805 628.058 646.302 625.866 646.594Z" fill="url(#paint7_linear_1_113)"/>
<path d="M705.714 709.377C699.383 710.22 694.318 709.408 690.52 706.94C686.843 704.456 684.761 701.387 684.275 697.735C683.853 694.569 684.645 691.676 686.65 689.054C688.655 686.432 691.91 684.822 696.415 684.221C697.998 684.011 699.848 683.95 701.967 684.039C704.191 683.991 705.859 683.955 706.971 683.93C706.427 680.781 705.3 677.895 703.587 675.273C701.996 672.635 700.057 670.167 697.768 667.87C695.463 665.451 693.329 663.381 691.364 661.66C688.547 669.346 685.567 675.815 682.426 681.066C679.406 686.302 675.988 691.342 672.172 696.187C670.273 698.671 668.105 700.075 665.67 700.399C663.722 700.659 662.05 700.2 660.654 699.023C659.242 697.724 658.398 696.04 658.122 693.97C657.798 691.535 658.35 689.169 659.779 686.872L661.764 683.633C667.357 674.462 671.502 666.97 674.197 661.159C675.797 657.352 677.607 652.34 679.629 646.123C681.635 639.784 683.555 633.27 685.39 626.582C686.99 620.916 691.442 617.597 698.748 616.624C702.157 616.17 704.571 616.158 705.992 616.588C707.412 617.018 708.212 617.903 708.39 619.243C708.487 619.973 708.398 621.162 708.122 622.81C707.846 624.458 707.387 626.13 706.746 627.826C705.138 632.501 704.537 636.361 704.942 639.405C705.186 641.231 706.062 643.159 707.572 645.188C709.203 647.201 711.577 649.673 714.693 652.604C719.271 657.198 722.777 661.192 725.212 664.586C727.752 667.841 729.306 671.599 729.874 675.86C730.036 677.078 730.141 678.799 730.19 681.023C735.848 677.915 742.029 670.833 748.735 659.779C749.969 657.879 751.499 656.808 753.326 656.565C754.908 656.354 756.223 656.922 757.27 658.27C758.439 659.601 759.194 661.545 759.534 664.102C760.151 668.729 759.497 672.657 757.573 675.888C752.491 684.248 747.336 690.201 742.108 693.747C736.986 697.156 730.362 699.525 722.237 700.856C717.918 705.644 712.411 708.485 705.714 709.377Z" fill="url(#paint8_linear_1_113)"/>
<path d="M834.701 630.11C836.284 629.899 837.607 630.528 838.67 631.998C839.733 633.467 840.427 635.419 840.751 637.854C841.53 643.699 840.227 647.404 836.842 648.97C829.877 652.5 822.036 655.032 813.318 656.565C812.367 667.101 808.897 675.927 802.905 683.045C796.898 690.042 789.572 694.115 780.928 695.267C773.622 696.24 767.117 695.31 761.411 692.477C755.827 689.627 751.306 685.459 747.849 679.971C744.391 674.484 742.209 668.331 741.3 661.513C740.067 652.259 740.738 643.806 743.312 636.152C745.87 628.376 749.986 622.065 755.66 617.22C761.318 612.253 767.921 609.267 775.47 608.261C784.723 607.028 792.58 609.265 799.041 614.972C805.607 620.541 810.001 627.948 812.225 637.194C817.898 636.066 824.554 633.94 832.193 630.816C833.134 630.443 833.971 630.207 834.701 630.11ZM779.81 675.713C783.706 675.194 786.843 673.165 789.222 669.627C791.722 666.072 793.062 661.246 793.241 655.151C789.126 653.097 785.758 650.138 783.137 646.274C780.637 642.393 779.079 638.14 778.463 633.513C778.203 631.565 778.126 629.593 778.232 627.596L777.319 627.718C772.448 628.367 768.686 631.284 766.031 636.471C763.482 641.519 762.775 648.305 763.91 656.828C764.803 663.524 766.762 668.468 769.79 671.658C772.939 674.832 776.279 676.184 779.81 675.713Z" fill="url(#paint9_linear_1_113)"/>
<path d="M844.515 686.796C839.889 687.412 836.277 685.415 833.68 680.804C831.205 676.177 829.253 668.507 827.826 657.792C825.717 641.964 825.967 626.627 828.574 611.781C829.199 608.104 830.624 605.312 832.848 603.405C835.178 601.36 838.595 600.037 843.1 599.437C845.535 599.113 847.28 599.19 848.336 599.669C849.391 600.148 850.032 601.24 850.259 602.944C850.519 604.892 850.189 609.397 849.271 616.459C848.703 621.491 848.296 625.883 848.052 629.633C847.792 633.261 847.776 637.786 848.002 643.208C850.024 633.273 852.85 624.718 856.479 617.543C860.23 610.352 864.269 604.857 868.595 601.059C873.028 597.123 877.374 594.871 881.636 594.303C885.897 593.735 889.01 594.312 890.974 596.033C893.06 597.738 894.371 600.599 894.906 604.617C895.425 608.513 895.209 615.729 894.258 626.265C893.868 630.778 893.637 634.154 893.563 636.395C897.656 620.608 902.962 608.81 909.48 601.003C915.999 593.195 922.485 588.861 928.938 588.001C936.852 586.947 941.336 590.377 942.391 598.291C943.023 603.039 942.828 611.802 941.804 624.578C940.901 635.479 940.677 642.634 941.132 646.043C941.78 650.913 943.87 653.113 947.401 652.642C949.836 652.318 952.503 650.476 955.401 647.116C958.405 643.618 962.261 638.147 966.969 630.704C968.203 628.805 969.734 627.734 971.56 627.491C973.143 627.28 974.458 627.848 975.504 629.196C976.673 630.527 977.428 632.471 977.769 635.028C978.417 639.898 977.763 643.827 975.807 646.813C971.431 653.964 966.475 660.015 960.939 664.965C955.524 669.9 948.982 672.878 941.311 673.9C935.102 674.727 930.179 673.586 926.543 670.477C922.891 667.246 920.61 662.222 919.702 655.403C919.248 651.994 919.289 645.793 919.826 636.799C920.387 628.918 920.472 623.516 920.083 620.594C919.823 618.646 919.024 617.761 917.685 617.939C916.102 618.15 914.125 620.52 911.755 625.049C909.368 629.456 907.159 635.203 905.129 642.289C903.099 649.375 901.666 656.753 900.829 664.423C900.268 670.446 899.205 674.553 897.638 676.744C896.193 678.92 893.522 680.267 889.626 680.786C885.608 681.321 882.313 679.839 879.74 676.341C877.273 672.704 875.674 668.146 874.944 662.667C874.328 658.041 874.045 651.263 874.094 642.334C874.03 634.412 873.836 629.233 873.511 626.798C873.252 624.85 872.452 623.965 871.113 624.144C869.287 624.387 867.265 626.887 865.049 631.643C862.833 636.4 860.839 642.365 859.069 649.541C857.421 656.699 856.243 663.672 855.536 670.457C854.959 676.358 853.895 680.465 852.345 682.779C850.9 684.954 848.29 686.293 844.515 686.796Z" fill="url(#paint10_linear_1_113)"/>
<path d="M1028.02 625.545C1029.6 625.334 1030.92 625.903 1031.96 627.25C1033.13 628.581 1033.89 630.526 1034.23 633.082C1034.81 637.466 1034.28 641.378 1032.63 644.819C1029.92 650.509 1025.96 655.188 1020.75 658.856C1015.66 662.508 1009.28 664.845 1001.61 665.867C989.917 667.424 980.384 665.163 973.007 659.083C965.613 652.88 961.121 643.813 959.531 631.881C958.412 623.48 959.14 615.453 961.713 607.799C964.271 600.023 968.371 593.591 974.013 588.502C979.776 583.397 986.615 580.317 994.529 579.263C1001.59 578.322 1007.54 579.699 1012.37 583.392C1017.18 586.964 1020.06 592.342 1021.02 599.526C1022.14 607.927 1020.06 615.577 1014.78 622.476C1009.61 629.236 1000.02 635.347 986 640.809C989.668 646.02 994.972 648.164 1001.91 647.239C1006.9 646.574 1010.83 644.874 1013.69 642.139C1016.67 639.387 1019.92 634.988 1023.45 628.942C1024.67 626.921 1026.19 625.788 1028.02 625.545ZM993.809 597.575C989.304 598.175 985.817 601.303 983.349 606.961C981.003 612.602 980.324 619.136 981.314 626.563L981.362 626.928C988.319 624.267 993.64 620.955 997.325 616.995C1001.01 613.034 1002.55 608.801 1001.95 604.296C1001.65 601.983 1000.73 600.246 999.215 599.085C997.802 597.786 996 597.283 993.809 597.575Z" fill="url(#paint11_linear_1_113)"/>
<path d="M1065.38 612.946C1062.95 613.271 1060.87 612.99 1059.14 612.105C1057.41 611.221 1056.39 609.621 1056.08 607.308L1056.07 605.823C1056.32 591.91 1057.06 576.013 1058.27 558.132C1059.48 540.25 1060.76 524.776 1062.12 511.707C1063.03 503.656 1067.81 499.054 1076.45 497.902C1084.24 496.864 1088.47 498.841 1089.14 503.833C1089.28 504.929 1089.26 506.171 1089.08 507.559C1087.63 520.886 1085.51 537.092 1082.73 556.174C1079.93 575.135 1077.05 591.689 1074.1 605.837C1073.28 609.911 1070.38 612.281 1065.38 612.946ZM1064.26 657.52C1058.9 658.234 1054.63 657.316 1051.44 654.767C1048.37 652.202 1046.52 648.545 1045.89 643.797C1045.16 638.318 1046.1 633.732 1048.7 630.039C1051.43 626.33 1055.59 624.102 1061.19 623.356C1066.55 622.642 1070.75 623.446 1073.78 625.768C1076.92 627.952 1078.84 631.6 1079.52 636.714C1080.26 642.315 1079.28 647.031 1076.57 650.862C1073.84 654.571 1069.74 656.79 1064.26 657.52Z" fill="url(#paint12_linear_1_113)"/>
<defs>
<linearGradient id="paint0_linear_1_113" x1="291.85" y1="682.047" x2="1166.97" y2="565.459" gradientUnits="userSpaceOnUse">
<stop stop-color="#8B63FF"/>
<stop offset="1" stop-color="#FF7CFA"/>
</linearGradient>
<linearGradient id="paint1_linear_1_113" x1="291.85" y1="682.047" x2="1166.97" y2="565.459" gradientUnits="userSpaceOnUse">
<stop stop-color="#8B63FF"/>
<stop offset="1" stop-color="#FF7CFA"/>
</linearGradient>
<linearGradient id="paint2_linear_1_113" x1="291.85" y1="682.047" x2="1166.97" y2="565.459" gradientUnits="userSpaceOnUse">
<stop stop-color="#8B63FF"/>
<stop offset="1" stop-color="#FF7CFA"/>
</linearGradient>
<linearGradient id="paint3_linear_1_113" x1="291.85" y1="682.047" x2="1166.97" y2="565.459" gradientUnits="userSpaceOnUse">
<stop stop-color="#8B63FF"/>
<stop offset="1" stop-color="#FF7CFA"/>
</linearGradient>
<linearGradient id="paint4_linear_1_113" x1="291.85" y1="682.047" x2="1166.97" y2="565.459" gradientUnits="userSpaceOnUse">
<stop stop-color="#8B63FF"/>
<stop offset="1" stop-color="#FF7CFA"/>
</linearGradient>
<linearGradient id="paint5_linear_1_113" x1="291.85" y1="682.047" x2="1166.97" y2="565.459" gradientUnits="userSpaceOnUse">
<stop stop-color="#8B63FF"/>
<stop offset="1" stop-color="#FF7CFA"/>
</linearGradient>
<linearGradient id="paint6_linear_1_113" x1="291.85" y1="682.047" x2="1166.97" y2="565.459" gradientUnits="userSpaceOnUse">
<stop stop-color="#8B63FF"/>
<stop offset="1" stop-color="#FF7CFA"/>
</linearGradient>
<linearGradient id="paint7_linear_1_113" x1="291.85" y1="682.047" x2="1166.97" y2="565.459" gradientUnits="userSpaceOnUse">
<stop stop-color="#8B63FF"/>
<stop offset="1" stop-color="#FF7CFA"/>
</linearGradient>
<linearGradient id="paint8_linear_1_113" x1="291.85" y1="682.047" x2="1166.97" y2="565.459" gradientUnits="userSpaceOnUse">
<stop stop-color="#8B63FF"/>
<stop offset="1" stop-color="#FF7CFA"/>
</linearGradient>
<linearGradient id="paint9_linear_1_113" x1="291.85" y1="682.047" x2="1166.97" y2="565.459" gradientUnits="userSpaceOnUse">
<stop stop-color="#8B63FF"/>
<stop offset="1" stop-color="#FF7CFA"/>
</linearGradient>
<linearGradient id="paint10_linear_1_113" x1="291.85" y1="682.047" x2="1166.97" y2="565.459" gradientUnits="userSpaceOnUse">
<stop stop-color="#8B63FF"/>
<stop offset="1" stop-color="#FF7CFA"/>
</linearGradient>
<linearGradient id="paint11_linear_1_113" x1="291.85" y1="682.047" x2="1166.97" y2="565.459" gradientUnits="userSpaceOnUse">
<stop stop-color="#8B63FF"/>
<stop offset="1" stop-color="#FF7CFA"/>
</linearGradient>
<linearGradient id="paint12_linear_1_113" x1="291.85" y1="682.047" x2="1166.97" y2="565.459" gradientUnits="userSpaceOnUse">
<stop stop-color="#8B63FF"/>
<stop offset="1" stop-color="#FF7CFA"/>
</linearGradient>
</defs>
</svg>
